<?xml version="1.0" encoding="utf-8"?>
<!-- Generator: Adobe Illustrator 19.0.0, SVG Export Plug-In . SVG Version: 6.00 Build 0)  -->
<svg version="1.1" id="Layer_1" xmlns="http://www.w3.org/2000/svg" xmlns:xlink="http://www.w3.org/1999/xlink" x="0px" y="0px"
	 viewBox="0 0 508 382" style="enable-background:new 0 0 508 382;" xml:space="preserve">
<style type="text/css">
	.st0{fill:#008BFE;}
	.st1{fill:#FFFFFF;}
	.st2{fill:none;}
	.st3{fill:#231F20;}
	.st4{fill:#C0CCDB;}
</style>
<ellipse id="XMLID_2_" transform="matrix(0.987 -0.1605 0.1605 0.987 -28.8939 29.5147)" class="st0" cx="168.3" cy="193.6" rx="167.2" ry="188.9"/>
<path id="XMLID_5_" class="st1" d="M291.7,174.8c10.4,73.2-31.7,139.7-94.2,148.6S76,280.2,65.6,207S97.3,67.3,159.7,58.4
	S281.2,101.6,291.7,174.8z M175.4,140.9c-19.7,2.8-33,23.8-29.7,46.9c3.3,23.1,21.9,39.5,41.6,36.7s33-23.8,29.7-46.9
	C213.7,154.5,195.1,138.1,175.4,140.9z"/>
<rect id="_x3C_Slice_x3E_" x="131.1" y="125.1" class="st2" width="104.1" height="109.6"/>
<g id="XMLID_9_">
	<path id="XMLID_7_" class="st3" d="M176.7,183.4l70.6-14.1c0,0,2.6-0.6,4.7,0.8c1.4,0.9,4.9,2,12.2-0.2
		c10.7-2,136.2-36.1,136.2-36.1s6.3-2.1,12.9,2.8c8.3,6.1,25.3,15.9,25.3,15.9s7.8,5.7,22,1.5c14.2-4.3,28.1-9.1,28.1-9.1
		s7.8-1.5,10.4-10.9s3.4-26.4,3.4-26.4l-77.5,16.3l1.8-5.6L508,96.8l-24.5-24.4c0,0-8.4-7.8-21.7-5c-13.4,2.8-35.3,9.3-35.3,9.3
		s-8.8,0.7-14.4,13.2l-11.6,23.5c0,0-1,2.9-6.8,5c-5.7,2.1-132.3,34.2-132.3,34.2s-10.7,1.4-12.8,5.6c-1.4,2.8-3.8,2.9-3.8,2.9
		L176.7,183.4z"/>
	<polygon id="XMLID_8_" class="st4" points="287.3,133.7 302.3,122.1 353.6,102 340.8,113.9 	"/>
	<polygon id="XMLID_10_" class="st4" points="378.1,163.1 360,162.4 293.7,175.7 315.6,179.1 365.4,169.2 	"/>
</g>
</svg>
